<svg width="80" height="75" viewBox="0 0 80 75" fill="none" xmlns="http://www.w3.org/2000/svg">
<path d="M39.5833 0L8.33333 20.8333H70.8333L39.5833 0ZM12.5 24.9999C10.1916 24.9999 8.33333 26.8583 8.33333 29.1666V58.3333L1.04167 70.8334C0.423583 71.893 0 72.3195 0 72.9166C0 74.9999 2.63188 75 4.16667 75H75C76.4791 75 79.1667 74.9999 79.1667 72.9166C79.1667 72.3074 78.8058 72.0005 78.125 70.8334L70.8333 58.3333V29.1666C70.8333 26.8583 68.975 24.9999 66.6667 24.9999H12.5ZM20.8333 33.3333C23.1417 33.3333 24.6205 35.2228 25 37.4999V62.5H16.6667V54.1666V37.4999C16.6667 35.1916 18.525 33.3333 20.8333 33.3333ZM39.5833 33.3333C41.8917 33.3333 43.7861 35.192 43.75 37.4999V54.1666V62.5H35.4167V54.1666V37.4999C35.4167 35.1916 37.275 33.3333 39.5833 33.3333ZM58.3333 33.3333C60.6417 33.3333 62.5 35.1916 62.5 37.4999V62.5H54.1667V54.1666V37.4999C54.1667 35.1916 56.025 33.3333 58.3333 33.3333Z" fill="#646464"/>
</svg>
