<svg width="24" height="23" viewBox="0 0 24 23" fill="none" xmlns="http://www.w3.org/2000/svg">
<path d="M3.34006 16.2915C2.91733 15.5909 2.58873 14.842 2.36206 14.0624C2.85537 13.822 3.26965 13.4554 3.55909 13.0034C3.84852 12.5513 4.00183 12.0313 4.00203 11.5009C4.00224 10.9705 3.84934 10.4504 3.56026 9.99812C3.27118 9.54584 2.85718 9.17901 2.36406 8.93821C2.8161 7.3718 3.67679 5.94145 4.86506 4.78191C5.32915 5.07107 5.86768 5.23153 6.42104 5.24554C6.9744 5.25955 7.52101 5.12656 8.00039 4.86129C8.47977 4.59603 8.87321 4.20883 9.13719 3.74254C9.40116 3.27626 9.52537 2.74907 9.49606 2.21933C11.1382 1.81263 12.8613 1.81329 14.5031 2.22125C14.474 2.75098 14.5985 3.27809 14.8626 3.74424C15.1268 4.21039 15.5204 4.59741 15.9999 4.86247C16.4794 5.12753 17.026 5.2603 17.5793 5.24608C18.1327 5.23187 18.6711 5.07122 19.1351 4.78191C19.7141 5.34733 20.2281 5.99037 20.6601 6.70816C21.0931 7.42596 21.4171 8.17441 21.6381 8.93725C21.1448 9.17769 20.7305 9.54423 20.441 9.99631C20.1516 10.4484 19.9983 10.9684 19.9981 11.4988C19.9979 12.0292 20.1508 12.5493 20.4399 13.0015C20.7289 13.4538 21.1429 13.8207 21.6361 14.0615C21.184 15.6279 20.3233 17.0582 19.1351 18.2177C18.671 17.9286 18.1324 17.7681 17.5791 17.7541C17.0257 17.7401 16.4791 17.8731 15.9997 18.1384C15.5204 18.4036 15.1269 18.7908 14.8629 19.2571C14.599 19.7234 14.4748 20.2506 14.5041 20.7803C12.862 21.187 11.1388 21.1864 9.49706 20.7784C9.52611 20.2487 9.40166 19.7216 9.13748 19.2554C8.8733 18.7893 8.4797 18.4023 8.00023 18.1372C7.52076 17.8721 6.97412 17.7394 6.42079 17.7536C5.86746 17.7678 5.32902 17.9284 4.86506 18.2177C4.27405 17.6398 3.76166 16.9926 3.34006 16.2915V16.2915ZM9.00006 16.4793C10.0657 17.0683 10.8669 18.0136 11.2501 19.1339C11.7491 19.179 12.2501 19.1799 12.7491 19.1349C13.1325 18.0144 13.9341 17.0691 15.0001 16.4803C16.0653 15.8897 17.3206 15.6968 18.5251 15.9388C18.8151 15.5478 19.0651 15.131 19.2731 14.6949C18.4525 13.8165 17.9992 12.6788 18.0001 11.4998C18.0001 10.2923 18.4701 9.16437 19.2731 8.30475C19.0636 7.86885 18.8125 7.45244 18.5231 7.06083C17.3193 7.30263 16.0649 7.11016 15.0001 6.52033C13.9344 5.93131 13.1332 4.98602 12.7501 3.86575C12.2511 3.82071 11.7501 3.81975 11.2511 3.86479C10.8677 4.98522 10.0661 5.93053 9.00006 6.51937C7.93484 7.11001 6.67954 7.30283 5.47506 7.06083C5.18563 7.4521 4.93519 7.86857 4.72706 8.30475C5.54763 9.18312 6.00094 10.3209 6.00006 11.4998C6.00006 12.7073 5.53006 13.8353 4.72706 14.6949C4.93653 15.1308 5.1876 15.5472 5.47706 15.9388C6.68078 15.697 7.93527 15.8895 9.00006 16.4793ZM12.0001 14.3748C11.2044 14.3748 10.4413 14.0719 9.87874 13.5328C9.31613 12.9936 9.00006 12.2623 9.00006 11.4998C9.00006 10.7373 9.31613 10.0061 9.87874 9.4669C10.4413 8.92773 11.2044 8.62483 12.0001 8.62483C12.7957 8.62483 13.5588 8.92773 14.1214 9.4669C14.684 10.0061 15.0001 10.7373 15.0001 11.4998C15.0001 12.2623 14.684 12.9936 14.1214 13.5328C13.5588 14.0719 12.7957 14.3748 12.0001 14.3748ZM12.0001 12.4582C12.2653 12.4582 12.5196 12.3572 12.7072 12.1775C12.8947 11.9978 13.0001 11.754 13.0001 11.4998C13.0001 11.2457 12.8947 11.0019 12.7072 10.8222C12.5196 10.6425 12.2653 10.5415 12.0001 10.5415C11.7348 10.5415 11.4805 10.6425 11.293 10.8222C11.1054 11.0019 11.0001 11.2457 11.0001 11.4998C11.0001 11.754 11.1054 11.9978 11.293 12.1775C11.4805 12.3572 11.7348 12.4582 12.0001 12.4582V12.4582Z" fill="white"/>
</svg>
